<svg xmlns="http://www.w3.org/2000/svg" xmlns:xlink="http://www.w3.org/1999/xlink" viewBox="0 0 155.13 94.45"><defs><linearGradient id="bf84e93e-215b-419b-be4b-2a119fd47bf3" x1="14.99" y1="47.23" x2="132.13" y2="47.23" gradientUnits="userSpaceOnUse"><stop offset="0" stop-color="#00f282"/><stop offset="1" stop-color="#00ba8f"/></linearGradient><linearGradient id="fd46556a-c474-4214-8d47-e88157f8ef0f" x1="45.57" y1="36.36" x2="110.59" y2="36.36" xlink:href="#bf84e93e-215b-419b-be4b-2a119fd47bf3"/><linearGradient id="ade28dc5-15e1-448a-845a-53d109db6491" x1="92.82" y1="12.94" x2="105.62" y2="12.94" xlink:href="#bf84e93e-215b-419b-be4b-2a119fd47bf3"/><linearGradient id="b59a30a6-6fc5-4694-a6a1-dcd76dc87dec" x1="50" y1="69.28" x2="82.74" y2="69.28" xlink:href="#bf84e93e-215b-419b-be4b-2a119fd47bf3"/><linearGradient id="ea7ec259-308d-41fd-9111-ca16accf8ce6" x1="45.57" y1="82.2" x2="85.94" y2="82.2" xlink:href="#bf84e93e-215b-419b-be4b-2a119fd47bf3"/><linearGradient id="ed5e2546-0383-4d2a-b4ba-688773d356f0" x1="104.63" y1="82.2" x2="109.57" y2="82.2" xlink:href="#bf84e93e-215b-419b-be4b-2a119fd47bf3"/><linearGradient id="a1c36a40-785c-4a49-9609-1d5a7e5a5a04" x1="48.53" y1="56.6" x2="82.98" y2="56.6" xlink:href="#bf84e93e-215b-419b-be4b-2a119fd47bf3"/></defs><title>new purchase</title><g id="ad01bbe3-4c12-4880-9f43-64538b965ad1" data-name="Layer 2"><g id="b3b00232-ca36-4b70-b0f8-2f6a8bc93765" data-name="Layer 1"><path d="M132.13,87.89V70.17a2.37,2.37,0,0,0-.41-1.37l-2.94-4.41a2.47,2.47,0,0,0-4.11,0l-1.88,2.82-1.88-2.82a2.48,2.48,0,0,0-4.12,0l-1.88,2.82L113,64.39a2.47,2.47,0,0,0-4.11,0l-.41.61V47.27l2.17,1.29a2.4,2.4,0,0,0,1.27.36,2.48,2.48,0,0,0,2.47-2.47V38.93a2.48,2.48,0,0,0-1.2-2.12l-8.79-5.28a2.6,2.6,0,0,0,.14-.84V14.24H106a2.48,2.48,0,0,0,2.47-2.47V5.89A2.48,2.48,0,0,0,106,3.42H84.4a2.47,2.47,0,0,0-2.46,2.47v5.88a2.47,2.47,0,0,0,2.46,2.47h1.47v6.15l-11-6.61a2.46,2.46,0,0,0-2.54,0l-38.39,23a2.51,2.51,0,0,0-1.2,2.12v7.52A2.51,2.51,0,0,0,34,48.6a2.47,2.47,0,0,0,2.49,0l2.17-1.3V65l-.41-.62a2.47,2.47,0,0,0-4.11,0l-1.88,2.83-1.88-2.83a2.48,2.48,0,0,0-2.06-1.1,2.45,2.45,0,0,0-2.05,1.1l-1.89,2.82-1.88-2.82a2.48,2.48,0,0,0-4.12,0l-2.93,4.4A2.52,2.52,0,0,0,15,70.17V87.9l1.13,2.73a2.48,2.48,0,0,0,1.34.4h5.89a2.38,2.38,0,0,0,1-.21,2.39,2.39,0,0,0,1,.21h5.88a2.42,2.42,0,0,0,1-.21,2.24,2.24,0,0,0,1,.21h5.87a2.4,2.4,0,0,0,1-.21,2.31,2.31,0,0,0,1,.21h65a2.39,2.39,0,0,0,1-.21,2.23,2.23,0,0,0,1,.21h5.89a2.34,2.34,0,0,0,1-.21,2.39,2.39,0,0,0,1,.21h5.88a2.39,2.39,0,0,0,1-.21,2.39,2.39,0,0,0,1,.21h5.88a2.48,2.48,0,0,0,1.34-.4Z" opacity="0.2" fill="url(#bf84e93e-215b-419b-be4b-2a119fd47bf3)"/><polygon points="29.82 66.9 29.82 84.67 34.74 84.67 34.74 66.9 32.28 63.2 29.82 66.9" fill="#fff"/><rect x="45.57" y="79.73" width="40.37" height="4.93" fill="#fff"/><polygon points="106.11 7.87 109.57 7.87 109.57 2.95 88.89 2.95 88.89 7.87 92.35 7.87 106.11 7.87" fill="#fff"/><polygon points="37.69 66.9 37.69 84.67 42.62 84.67 42.62 78.26 42.62 66.9 40.16 63.2 37.69 66.9" fill="#fff"/><polygon points="21.94 66.9 21.94 84.67 26.87 84.67 26.87 66.9 24.4 63.2 21.94 66.9" fill="#fff"/><polygon points="92.82 18.75 105.63 26.43 105.63 10.82 92.82 10.82 92.82 18.74 92.82 18.75" fill="#fff"/><path d="M115.48,35.78l-10.56-6.33-.09-.05L91.08,21.14h0L77.56,13,39.66,35.78v6.41l4.07-2.44a.24.24,0,0,1,.08-.06L76.05,20.36l.25-.15a2.46,2.46,0,0,1,2.54,0l32.48,19.48s0,0,0,0l4.14,2.48Z" fill="#fff"/><polygon points="120.39 66.9 120.39 84.67 125.31 84.67 125.31 66.9 122.86 63.2 120.39 66.9" fill="#fff"/><polygon points="112.52 66.9 112.52 78.26 112.52 84.67 117.44 84.67 117.44 66.9 114.97 63.2 112.52 66.9" fill="#fff"/><polygon points="88.89 78.26 88.89 84.67 101.69 84.67 101.69 78.26 101.69 56.1 88.89 56.1 88.89 78.26" fill="#fff"/><polygon points="130.73 63.2 128.26 66.9 128.26 84.67 133.19 84.67 133.19 66.9 130.73 63.2" fill="#fff"/><rect x="104.63" y="79.73" width="4.93" height="4.93" fill="#fff"/><path d="M45.57,42.08v34.7H85.94V55.63a2.48,2.48,0,0,1,2.47-2.48h13.76a2.48,2.48,0,0,1,2.46,2.48V76.78h4.94V42.08l-32-19.2Z" fill="#fff"/><polygon points="45.57 42.08 77.56 22.88 109.57 42.08 110.59 49.83 77.56 30.26 45.57 47.23 45.57 42.08" opacity="0.2" fill="url(#fd46556a-c474-4214-8d47-e88157f8ef0f)"/><rect x="92.82" y="10.82" width="12.81" height="4.24" opacity="0.2" fill="url(#ade28dc5-15e1-448a-845a-53d109db6491)"/><path d="M50,67.92l2.79,2.66a2.27,2.27,0,0,0,1.56.63H80.48a2.26,2.26,0,0,0,1.6-3.86h0Z" opacity="0.2" fill="url(#b59a30a6-6fc5-4694-a6a1-dcd76dc87dec)"/><rect x="45.57" y="79.73" width="40.37" height="4.93" opacity="0.2" fill="url(#ea7ec259-308d-41fd-9111-ca16accf8ce6)"/><rect x="104.63" y="79.73" width="4.93" height="4.93" opacity="0.2" fill="url(#ed5e2546-0383-4d2a-b4ba-688773d356f0)"/><path d="M136.13,84.48V66.75a2.4,2.4,0,0,0-.41-1.37L132.78,61a2.47,2.47,0,0,0-4.11,0l-1.88,2.82L124.91,61a2.48,2.48,0,0,0-4.12,0l-1.88,2.82L117,61a2.47,2.47,0,0,0-4.11,0l-.41.61V43.85l2.17,1.29a2.4,2.4,0,0,0,1.27.36A2.48,2.48,0,0,0,118.42,43V35.51a2.48,2.48,0,0,0-1.2-2.12l-8.79-5.28a2.54,2.54,0,0,0,.14-.83V10.82H110a2.48,2.48,0,0,0,2.47-2.47V2.47A2.48,2.48,0,0,0,110,0H88.4a2.47,2.47,0,0,0-2.46,2.47V8.35a2.47,2.47,0,0,0,2.46,2.47h1.47V17l-11-6.61a2.46,2.46,0,0,0-2.54,0l-38.39,23a2.51,2.51,0,0,0-1.2,2.12V43A2.5,2.5,0,0,0,38,45.18a2.44,2.44,0,0,0,2.49,0l2.17-1.3V61.59L42.21,61a2.47,2.47,0,0,0-4.11,0L36.22,63.8,34.34,61a2.48,2.48,0,0,0-2.06-1.1A2.45,2.45,0,0,0,30.23,61l-1.89,2.82L26.46,61a2.48,2.48,0,0,0-4.12,0l-2.93,4.4A2.54,2.54,0,0,0,19,66.75V84.48A190.25,190.25,0,0,0,0,91.76l1.2,2.69a192.17,192.17,0,0,1,18.92-7.24,2.41,2.41,0,0,0,1.34.41h5.89a2.39,2.39,0,0,0,1-.22,2.4,2.4,0,0,0,1,.22h5.88a2.43,2.43,0,0,0,1-.22,2.25,2.25,0,0,0,1,.22h5.87a2.41,2.41,0,0,0,1-.22,2.32,2.32,0,0,0,1,.22h65a2.4,2.4,0,0,0,1-.22,2.24,2.24,0,0,0,1,.22h5.89a2.35,2.35,0,0,0,1-.22,2.4,2.4,0,0,0,1,.22h5.88a2.4,2.4,0,0,0,1-.22,2.4,2.4,0,0,0,1,.22h5.88a2.41,2.41,0,0,0,1.34-.41,192.17,192.17,0,0,1,18.92,7.24l1.2-2.69A188,188,0,0,0,136.13,84.48Zm-109.26.19H21.94V66.9l2.46-3.7,2.47,3.7Zm7.87,0H29.81V66.9l2.47-3.7,2.46,3.7Zm7.88-6.41v6.41H37.69V66.9l2.46-3.7,2.47,3.7ZM88.89,7.87V3h20.68V7.87H88.89Zm16.73,3V26.43l-12.8-7.68h0V10.82ZM85.94,84.67H45.57V79.73H85.94Zm15.74-6.41v6.41H88.89V56.1h12.79Zm7.89,6.41h-4.94V79.73h4.94Zm0-17.92v10h-4.94V55.63a2.48,2.48,0,0,0-2.47-2.48H88.4a2.48,2.48,0,0,0-2.46,2.48V76.78H45.57V42.08l32-19.2,32,19.2Zm1.77-27s0,0,0,0L78.84,20.21a2.46,2.46,0,0,0-2.54,0l-.25.15L43.81,39.69a.24.24,0,0,0-.08.06l-4.07,2.44V35.78L77.56,13l13.51,8.11h0l13.75,8.26.09.05,10.55,6.33v6.41Zm6.1,45h-4.93V66.9L115,63.2l2.47,3.7Zm7.87,0h-4.92V66.9l2.46-3.7,2.46,3.7Zm7.88,0h-4.93V66.9l2.47-3.7,2.46,3.7Z" fill="#22364c"/><path d="M95.28,71.86h2a1.48,1.48,0,0,0,0-3h-2a1.48,1.48,0,0,0,0,3Z" fill="#22364c"/><path d="M53,45.28a2.48,2.48,0,0,0-2.47,2.48V65H50a1.48,1.48,0,0,0,0,3H81.5a1.48,1.48,0,1,0,0-3H81V47.76a2.47,2.47,0,0,0-2.46-2.48H53ZM64.27,65H53.44V58.08H64.27Zm0-9.84H53.44v-6.9H64.27Zm3-6.9H78.05v6.9H67.22Zm0,9.85H78.05V65H67.22Z" fill="url(#a1c36a40-785c-4a49-9609-1d5a7e5a5a04)"/></g></g></svg>