<svg xmlns="http://www.w3.org/2000/svg" xmlns:xlink="http://www.w3.org/1999/xlink" viewBox="0 0 101.97 117.22"><defs><linearGradient id="e176991f-d394-40ca-b061-ee86c69f3149" x1="19.03" y1="60.21" x2="79.93" y2="60.21" gradientUnits="userSpaceOnUse"><stop offset="0" stop-color="#00f282"/><stop offset="1" stop-color="#00ba8f"/></linearGradient><linearGradient id="ae932694-5fcc-4e42-88f1-706ed6e29348" x1="45.68" y1="65.84" x2="98.97" y2="65.84" xlink:href="#e176991f-d394-40ca-b061-ee86c69f3149"/><linearGradient id="ed43249b-8381-400e-80e6-31128d0b2fad" x1="0" y1="54.49" x2="53.29" y2="54.49" xlink:href="#e176991f-d394-40ca-b061-ee86c69f3149"/><linearGradient id="e612b2bf-c0fc-46a2-aecf-026d2b5e7563" x1="24.09" y1="57.71" x2="81.18" y2="57.71" xlink:href="#e176991f-d394-40ca-b061-ee86c69f3149"/><linearGradient id="eca696a7-f63d-4aae-ac07-6db86b6112af" x1="42.06" y1="57.1" x2="62.91" y2="57.1" xlink:href="#e176991f-d394-40ca-b061-ee86c69f3149"/></defs><title>refinance</title><g id="ab49ff0d-b0ff-4d74-9a25-957c45eac101" data-name="Layer 2"><g id="b7f55f68-e4b5-4567-ba90-f673d9a48b6a" data-name="Layer 1"><g opacity="0.2"><circle cx="49.48" cy="60.21" r="30.45" fill="url(#e176991f-d394-40ca-b061-ee86c69f3149)"/><path d="M99,60.21a49.47,49.47,0,0,0-21.82-41,49,49,0,0,0-8.4-4.57,1.92,1.92,0,0,0-.74-.15.61.61,0,0,0-.19,0,1.9,1.9,0,0,0-.56,3.66,45.63,45.63,0,0,1,27.9,42.09,45.6,45.6,0,0,1-43,45.53l4.34-4.33a1.91,1.91,0,0,0,0-2.69,1.87,1.87,0,0,0-1.41-.57,1.84,1.84,0,0,0-1.31.57l-7.62,7.61a1.91,1.91,0,0,0,0,2.69l7.62,7.61A1.9,1.9,0,1,0,56.59,114l-.05-.06-4.39-4.38A49.49,49.49,0,0,0,99,60.21Z" fill="url(#ae932694-5fcc-4e42-88f1-706ed6e29348)"/><path d="M31.84,102.36l-.13-.06A45.39,45.39,0,0,1,24,98.09a46.41,46.41,0,0,1-6.76-5.58,45.86,45.86,0,0,1-5.58-6.77A45.31,45.31,0,0,1,4.74,69.42,45.67,45.67,0,0,1,46.56,14.67l-4.13,4.14a1.9,1.9,0,1,0,2.63,2.74l.06-.05,7.61-7.62a1.9,1.9,0,0,0,0-2.69h0L45.12,3.58a1.9,1.9,0,1,0-2.69,2.69L47,10.85a49.46,49.46,0,0,0-16.79,95,1.9,1.9,0,0,0,1.62-3.44Z" fill="url(#ed43249b-8381-400e-80e6-31128d0b2fad)"/></g><path d="M52.48,26.76A30.45,30.45,0,1,0,82.93,57.21,30.48,30.48,0,0,0,52.48,26.76Z" fill="#fff"/><path d="M24.09,58.11c0,16.8,11.6,28.56,28.39,28.56S81.18,76,81.18,59.21A30.47,30.47,0,0,0,50.73,28.76C33.94,28.76,24.09,41.32,24.09,58.11Zm53.29,1.1A26.65,26.65,0,1,1,50.73,32.56,26.61,26.61,0,0,1,77.38,59.21Z" opacity="0.2" fill="url(#e612b2bf-c0fc-46a2-aecf-026d2b5e7563)"/><path d="M25.84,57.21A26.65,26.65,0,1,0,52.48,30.56,26.61,26.61,0,0,0,25.84,57.21ZM60.56,45.36a9.49,9.49,0,0,1,2,6.41H58a8.36,8.36,0,0,0-.34-2.46,5.72,5.72,0,0,0-1-2,4.39,4.39,0,0,0-1.59-1.27,4.83,4.83,0,0,0-2.16-.47,6.25,6.25,0,0,0-2.19.35,4.19,4.19,0,0,0-1.56,1,4,4,0,0,0-.92,1.46,6,6,0,0,0-.29,1.9A5,5,0,0,0,48.26,52a3.88,3.88,0,0,0,1,1.41,8.47,8.47,0,0,0,1.85,1.22A22.66,22.66,0,0,0,54,55.76a24.77,24.77,0,0,1,3.83,1.4A11.14,11.14,0,0,1,60.61,59a6.8,6.8,0,0,1,1.72,2.36,7.91,7.91,0,0,1,.58,3.11,7.52,7.52,0,0,1-.61,3.1,6.79,6.79,0,0,1-1.71,2.36,8.45,8.45,0,0,1-2.69,1.61,14,14,0,0,1-3.57.8v3.85H50.66V72.29a14.08,14.08,0,0,1-3.22-.74,8.63,8.63,0,0,1-2.77-1.62,7.84,7.84,0,0,1-1.9-2.67,9.72,9.72,0,0,1-.71-3.89h4.65a7,7,0,0,0,.49,2.83A4.88,4.88,0,0,0,48.52,68a4.75,4.75,0,0,0,1.82.92,7.7,7.7,0,0,0,2,.26,8.53,8.53,0,0,0,2.48-.32,5.37,5.37,0,0,0,1.85-.94,4.13,4.13,0,0,0,1.16-1.48,4.64,4.64,0,0,0,.4-2,4.32,4.32,0,0,0-.32-1.67,4,4,0,0,0-1-1.42,7.11,7.11,0,0,0-1.82-1.22,19.47,19.47,0,0,0-2.69-1.08,26.21,26.21,0,0,1-3.8-1.35,12.12,12.12,0,0,1-2.85-1.82,7.46,7.46,0,0,1-1.8-2.4,7.76,7.76,0,0,1-.61-3.15,8.29,8.29,0,0,1,.53-3A7,7,0,0,1,45.41,45a8.39,8.39,0,0,1,2.48-1.65,11.48,11.48,0,0,1,3.25-.86V38.07h3.72V42.5A8.72,8.72,0,0,1,60.56,45.36Z" fill="none"/><path d="M22,57.21A30.45,30.45,0,1,0,52.48,26.76,30.48,30.48,0,0,0,22,57.21Zm57.1,0A26.65,26.65,0,1,1,52.48,30.56,26.61,26.61,0,0,1,79.13,57.21Z" fill="#22364c"/><path d="M102,57.21a49.47,49.47,0,0,0-21.82-41,49,49,0,0,0-8.4-4.57,1.92,1.92,0,0,0-.74-.15.61.61,0,0,0-.19,0,1.9,1.9,0,0,0-.56,3.66,45.63,45.63,0,0,1,27.9,42.09,45.6,45.6,0,0,1-43,45.53l4.34-4.33a1.91,1.91,0,0,0,0-2.69,1.87,1.87,0,0,0-1.41-.57,1.84,1.84,0,0,0-1.31.57l-7.62,7.61a1.91,1.91,0,0,0,0,2.69l7.62,7.61A1.9,1.9,0,1,0,59.59,111l-.05-.06-4.39-4.38A49.49,49.49,0,0,0,102,57.21Z" fill="#22364c"/><path d="M34.84,99.36l-.13-.06A45.39,45.39,0,0,1,27,95.09a46.41,46.41,0,0,1-6.76-5.58,45.86,45.86,0,0,1-5.58-6.77A45.31,45.31,0,0,1,7.74,66.42,45.67,45.67,0,0,1,49.56,11.67l-4.13,4.14a1.9,1.9,0,1,0,2.63,2.74l.06-.05,7.61-7.62a1.9,1.9,0,0,0,0-2.69h0L48.12.58a1.9,1.9,0,1,0-2.69,2.69L50,7.85a49.46,49.46,0,0,0-16.79,95,1.9,1.9,0,0,0,1.62-3.44Z" fill="#22364c"/><path d="M51.14,38.07v4.41a11.48,11.48,0,0,0-3.25.86A8.39,8.39,0,0,0,45.41,45a7,7,0,0,0-1.56,2.36,8.29,8.29,0,0,0-.53,3,7.76,7.76,0,0,0,.61,3.15,7.46,7.46,0,0,0,1.8,2.4,12.12,12.12,0,0,0,2.85,1.82,26.21,26.21,0,0,0,3.8,1.35,19.47,19.47,0,0,1,2.69,1.08,7.11,7.11,0,0,1,1.82,1.22,4,4,0,0,1,1,1.42,4.32,4.32,0,0,1,.32,1.67,4.64,4.64,0,0,1-.4,2,4.13,4.13,0,0,1-1.16,1.48,5.37,5.37,0,0,1-1.85.94,8.53,8.53,0,0,1-2.48.32,7.7,7.7,0,0,1-2-.26A4.75,4.75,0,0,1,48.52,68,4.88,4.88,0,0,1,47.2,66.2a7,7,0,0,1-.49-2.83H42.06a9.72,9.72,0,0,0,.71,3.89,7.84,7.84,0,0,0,1.9,2.67,8.63,8.63,0,0,0,2.77,1.62,14.08,14.08,0,0,0,3.22.74v3.85h3.67V72.29a14,14,0,0,0,3.57-.8,8.45,8.45,0,0,0,2.69-1.61,6.79,6.79,0,0,0,1.71-2.36,7.52,7.52,0,0,0,.61-3.1,7.91,7.91,0,0,0-.58-3.11A6.8,6.8,0,0,0,60.61,59a11.14,11.14,0,0,0-2.8-1.79A24.77,24.77,0,0,0,54,55.76a22.66,22.66,0,0,1-2.84-1.1,8.47,8.47,0,0,1-1.85-1.22,3.88,3.88,0,0,1-1-1.41A5,5,0,0,1,48,50.29a6,6,0,0,1,.29-1.9,4,4,0,0,1,.92-1.46,4.19,4.19,0,0,1,1.56-1,6.25,6.25,0,0,1,2.19-.35,4.83,4.83,0,0,1,2.16.47,4.39,4.39,0,0,1,1.59,1.27,5.72,5.72,0,0,1,1,2A8.36,8.36,0,0,1,58,51.77h4.62a9.49,9.49,0,0,0-2-6.41,8.72,8.72,0,0,0-5.7-2.86V38.07Z" fill="url(#eca696a7-f63d-4aae-ac07-6db86b6112af)"/></g></g></svg>